<svg xmlns="http://www.w3.org/2000/svg" viewBox="0 0 512 512">
	<!-- !Font Awesome Free 6.5.2 by @fontawesome - https://fontawesome.com License - https://fontawesome.com/license/free Copyright 2024 Fonticons, Inc. -->
	<path fill="#ff9800" d="M240 96h64a16 16 0 0 0 16-16V48a16 16 0 0 0 -16-16h-64a16 16 0 0 0 -16 16v32a16 16 0 0 0 16 16zm0 128h128a16 16 0 0 0 16-16v-32a16 16 0 0 0 -16-16H240a16 16 0 0 0 -16 16v32a16 16 0 0 0 16 16zm256 192H240a16 16 0 0 0 -16 16v32a16 16 0 0 0 16 16h256a16 16 0 0 0 16-16v-32a16 16 0 0 0 -16-16zm-256-64h192a16 16 0 0 0 16-16v-32a16 16 0 0 0 -16-16H240a16 16 0 0 0 -16 16v32a16 16 0 0 0 16 16zM16 160h48v304a16 16 0 0 0 16 16h32a16 16 0 0 0 16-16V160h48c14.2 0 21.4-17.2 11.3-27.3l-80-96a16 16 0 0 0 -22.6 0l-80 96C-5.4 142.7 1.8 160 16 160z" />
</svg>
